<svg xmlns:xlink="http://www.w3.org/1999/xlink" width="121" height="30" fill="none" xmlns="http://www.w3.org/2000/svg" id="svg181045983_2609"><path d="M46.782 20.753H43.96V8.297h2.822v5.047h6.278V8.297h2.82V20.75h-2.82v-5.21h-6.278v5.214Zm14.214-4.998c0 2.204.692 3.12 3.024 3.12 2.334 0 2.994-.926 2.994-3.12v-7.46h2.82v7.53a4.963 4.963 0 0 1-.784 3.344c-1.106 1.219-2.71 1.72-5.04 1.72-2.333 0-3.957-.501-5.058-1.72-.618-.67-.77-1.767-.77-3.344v-7.53h2.802l.012 7.46Zm18.06-7.46 5.711 12.456h-3.125l-1.23-2.967h-5.827L73.39 20.75h-2.997l5.67-12.455h2.992Zm-3.566 7.27h3.995L77.45 10.78l-1.96 4.787Zm28.376-7.268L99.722 20.75h-3.455l-2.845-9.285-2.498 9.298h-3.437L83.023 8.31h3.027l3.11 9.574 2.614-9.574h3.324l3.003 9.574 2.894-9.574 2.871-.013Zm3.806 5.064h7.804v2.16h-7.83c.014 2.237.967 3.05 3.19 3.05h4.628v2.17h-4.76a6.314 6.314 0 0 1-4.182-1.092 5.677 5.677 0 0 1-1.634-2.198 5.705 5.705 0 0 1-.418-2.712c0-4.401 1.998-6.451 6.311-6.451h4.682v2.17h-4.628c-2.031 0-3.058.934-3.173 2.894l.01.01Zm10.289-5.064h2.947v12.456h-2.947V8.297ZM16.562 22.758a.121.121 0 0 0 .032-.143A88.427 88.427 0 0 0 5.891 5.15S2.53 8.359 2.768 11.579a5.695 5.695 0 0 0 1.949 3.875c2.933 2.877 10.035 6.507 11.687 7.328a.134.134 0 0 0 .159-.023l-.001-.001Zm-1.098 2.461a.163.163 0 0 0-.058-.078.163.163 0 0 0-.093-.03v-.003l-11.826.415c1.282 2.3 3.455 4.087 5.692 3.539 1.552-.39 5.071-2.86 6.218-3.692v-.004c.089-.08.058-.145.058-.145l.01-.002Zm.18-1.069c.057-.092-.047-.174-.047-.174v-.004C10.418 20.45.34 15.037.34 15.037a7.083 7.083 0 0 0 .32 5.153 7.022 7.022 0 0 0 3.728 3.548 7.193 7.193 0 0 0 2.262.5c.178.035 7.033.004 8.868-.004a.159.159 0 0 0 .123-.084l.003.001ZM16.428.014c-.515.046-1.904.364-1.904.364a5.497 5.497 0 0 0-3.87 3.672 7.318 7.318 0 0 0 .015 3.772c1.044 4.664 6.188 12.33 7.291 13.937.078.08.143.05.143.05a.147.147 0 0 0 .11-.148h.001C19.914 4.549 16.429 0 16.429 0v.014Zm3.913 21.79a.133.133 0 0 0 .17-.063h.001c1.136-1.652 6.248-9.275 7.287-13.919a7.906 7.906 0 0 0 .02-3.772 5.524 5.524 0 0 0-1.481-2.347A5.48 5.48 0 0 0 23.91.378s-.904-.23-1.862-.365c0 0-3.505 4.538-1.801 21.66h.002a.14.14 0 0 0 .093.13v.002Zm2.798 3.317s-.115.014-.133.09a.175.175 0 0 0 .046.162c1.128.817 4.56 3.244 6.218 3.699 0 0 3.057 1.047 5.712-3.54l-11.84-.417-.003.006Zm14.993-10.11s-10.053 5.426-15.251 8.954a.162.162 0 0 0-.06.174s.05.089.122.089v.002l9.08-.023a7.029 7.029 0 0 0 2.037-.473 6.956 6.956 0 0 0 3.807-3.662c.696-1.6.79-3.398.265-5.062v.001Zm-16.202 7.76a.15.15 0 0 0 .161.011c1.693-.85 8.744-4.456 11.663-7.317a5.75 5.75 0 0 0 1.949-3.893c.213-3.33-3.11-6.412-3.11-6.412a88.365 88.365 0 0 0-10.686 17.42h.004a.165.165 0 0 0 .032.19" opacity=".5" fill="#95928E"></path></svg>