<svg xmlns:xlink="http://www.w3.org/1999/xlink" width="90" height="34" fill="none" xmlns="http://www.w3.org/2000/svg" id="svg359211420_2970"><path d="M0 15.794c0 8.73 7.035 15.809 15.72 15.809 4.439 0 8.444-1.845 11.293-4.815-5.654-.825-9.975-5.43-9.975-10.994 0-5.55 4.32-10.17 9.975-10.994A15.585 15.585 0 0 0 15.72 0C7.035-.015 0 7.065 0 15.794Zm44.307-7.62c-.885-.6-1.74-1.05-2.534-1.334a7.023 7.023 0 0 0-2.386-.42c-1.305 0-2.355.39-3.18 1.154-.824.765-1.244 1.725-1.244 2.88 0 .945.255 1.71.794 2.31.526.6 1.68 1.26 3.42 2.01.106.045.255.105.466.18 1.98.81 3.3 1.59 3.974 2.34.465.51.81 1.08 1.05 1.724.24.645.36 1.336.36 2.055 0 1.71-.6 3.12-1.785 4.23-1.185 1.095-2.7 1.65-4.545 1.65a8.05 8.05 0 0 1-2.76-.48c-.914-.315-1.83-.78-2.759-1.425v-2.1c1.005.796 1.964 1.38 2.864 1.755.9.39 1.77.585 2.626.585 1.395 0 2.504-.39 3.314-1.154.81-.766 1.215-1.815 1.215-3.135 0-.975-.285-1.77-.84-2.401-.556-.614-1.814-1.35-3.795-2.174-2.054-.855-3.449-1.71-4.2-2.58-.75-.87-1.124-1.98-1.124-3.315 0-1.665.57-3.044 1.725-4.094 1.155-1.065 2.64-1.59 4.485-1.59.84 0 1.65.12 2.444.345a9.899 9.899 0 0 1 2.4 1.065v1.92m7.83 15.673-5.91-11.43h1.754l5.01 9.675 4.694-9.674h1.62L48.897 33.762h-1.59l4.815-9.914Zm9.914-6.359c0 1.02.36 1.889 1.08 2.594.72.721 1.59 1.065 2.624 1.065 1.02 0 1.875-.36 2.596-1.08.704-.719 1.065-1.589 1.065-2.624 0-1.035-.361-1.905-1.065-2.625-.721-.72-1.575-1.08-2.596-1.08-1.02 0-1.89.36-2.609 1.095-.735.735-1.095 1.62-1.095 2.655Zm3.81 9.854c-1.605 0-2.805.225-3.585.675-.78.45-1.17 1.14-1.17 2.054 0 .78.405 1.38 1.215 1.8.81.42 1.95.646 3.42.646 1.605 0 2.82-.225 3.66-.675.825-.45 1.245-1.126 1.245-2.01 0-.84-.39-1.455-1.171-1.86-.78-.435-1.98-.63-3.614-.63Zm-1.89-5.174c-1.14-.45-2.01-1.081-2.595-1.875-.585-.796-.884-1.74-.884-2.835 0-.885.209-1.695.659-2.43.434-.735 1.065-1.365 1.875-1.875a4.63 4.63 0 0 1 1.425-.555c.54-.105 1.38-.165 2.534-.165h5.25v1.335h-3c.57.54.99 1.11 1.26 1.71.27.585.406 1.26.406 1.98 0 1.275-.376 2.31-1.111 3.134-.735.826-1.89 1.455-3.434 1.905-.24.075-.585.165-1.035.285-1.636.405-2.445 1.005-2.445 1.755 0 .705 1.125 1.17 3.36 1.38.075.015.12.015.164.015 2.206.225 3.705.6 4.515 1.17.81.555 1.215 1.44 1.215 2.64 0 1.364-.54 2.385-1.605 3.06-1.065.675-2.684 1.005-4.875 1.005-1.95 0-3.45-.33-4.485-.975-1.035-.645-1.543-1.591-1.543-2.79 0-.915.33-1.695.989-2.31.66-.615 1.59-1.005 2.76-1.17-.63-.15-1.095-.39-1.44-.735a1.77 1.77 0 0 1-.51-1.26c0-.54.225-1.02.66-1.44.48-.435 1.095-.75 1.89-.96Zm10.438 4.454h1.59V12.42h-1.59v14.203Zm0-18.883h1.59V5.16h-1.59v2.58Zm15.6 18.329a8.27 8.27 0 0 1-1.755.629 8.001 8.001 0 0 1-1.8.21c-2.174 0-3.944-.69-5.34-2.07-1.394-1.38-2.099-3.15-2.099-5.324 0-2.1.72-3.855 2.16-5.265 1.44-1.41 3.24-2.13 5.4-2.13.524 0 1.049.06 1.574.15a7.87 7.87 0 0 1 1.575.48v1.785a6.203 6.203 0 0 0-1.634-.705 6.595 6.595 0 0 0-1.74-.225c-1.561 0-2.896.57-3.99 1.74-1.08 1.125-1.62 2.535-1.62 4.184 0 1.68.54 3.09 1.635 4.23 1.095 1.14 2.414 1.71 3.989 1.71a5.76 5.76 0 0 0 1.785-.285c.6-.195 1.215-.48 1.844-.87v1.756" opacity=".5" fill="#95928E"></path></svg>