<svg xmlns:xlink="http://www.w3.org/1999/xlink" width="61" height="46" fill="none" xmlns="http://www.w3.org/2000/svg" id="svg-1669729788_650"><path d="M.001 32.247c5.366 3.096 16.767 3.968 16.806-5.398 0-5.159-8.324-5.08-8.324-7.183 0-2.54 5.286.238 5.799.636.71-1.786 1.46-3.572 2.208-5.358-5.207-2.817-15.385-2.896-15.385 5.596 0 5.12 7.93 4.842 7.93 7.065 0 3.055-6.353-.834-6.708-1.072C1.577 28.44.79 30.343 0 32.248l.001-.001Zm37.794 1.745h7.18L41.74 13.555h-7.535l-2.92 11.033h-.118l-2.762-11.033H20.87l-3.472 20.438h7.22L25.8 22.166l3.235 11.825h4.34l3.235-11.825 1.183 11.825h.001Zm9.192 0v.04h13.769v-5.556h-6.589v-2.143h5.838v-5.24h-5.838V19.11h6.43v-5.557h-13.61v20.44Z" fill="#95928E" opacity=".5"></path></svg>