<svg xmlns:xlink="http://www.w3.org/1999/xlink" width="113" height="17" fill="none" xmlns="http://www.w3.org/2000/svg" id="svg-1481375119_1442"><path d="m43.473.062-7.165 10.673c-.746 1.13-2.053 1.812-3.421 1.812-2.229 0-4.072-1.841-4.072-4.063a4.103 4.103 0 0 1 4.088-4.094c.222-.028.52-.06.729-.06 1.546 0 3.121.653 4.192 1.751l2.14-3.262C38.3 1.1 35.83 0 33.364 0c-4.61 0-8.831 3.826-8.831 8.452 0 4.6 3.776 8.365 8.385 8.365 2.23 0 4.46-.95 6.006-2.522h4.935l.03 2.522h4.283V.062h-4.7Zm-1.96 10.555 2.346-3.289.03 3.29h-2.376Zm14.869 6.198h-4.283V3.973h-3.33V.09L59.71.061v3.912h-3.328v12.842ZM73.977.061l-4.282.001-.03 6.256H64.61L64.579.06h-4.28v16.754h4.311V10.2h5.085v6.614h4.282V.061Zm34.317 0v7.797L102.407.06 98.51.088l-.029 6.11C97.5 2.64 94.14.062 90.393.062c-4.607 0-8.385 3.764-8.385 8.39 0 1.486.446 2.994 1.16 4.301h-4.243V.061h-4.363v16.754h9.975v-2.344c1.575 1.454 3.716 2.344 5.856 2.344 3.746 0 7.047-2.521 8.088-6.08l.03 6.08h4.312V8.662l5.856 8.153h3.893l.006-16.754h-4.284Zm-17.9 12.662a4.277 4.277 0 0 1-4.282-4.272c0-2.341 1.932-4.268 4.281-4.268 2.38 0 4.313 1.927 4.313 4.268 0 2.374-1.932 4.272-4.313 4.272Zm-71.039.031v-2.345h4.596l-.009-4.09h-4.587V4.183h5.065L24.41.062 14.66.09v5.754C13.65 2.7 10.733.386 7.403.09L0 .063v16.753h7.434c3.299-.295 6.215-2.608 7.225-5.722v5.722h9.76l-.008-4.062h-5.056Zm-9.424-1.75c-.267 1.128-1.338 1.927-2.497 1.957H4.7V3.973h2.735a2.6 2.6 0 0 1 2.497 1.99 7.8 7.8 0 0 1 .417 2.489 8.13 8.13 0 0 1-.417 2.55Z" opacity=".5" fill="#95928E"></path></svg>