<svg xmlns:xlink="http://www.w3.org/1999/xlink" width="127" height="33" fill="none" xmlns="http://www.w3.org/2000/svg" id="svg-606843902_2496"><path d="m73.665 3.61 7.29 2.783-7.29 2.632v3.76L86.15 7.898V4.89L73.665 0v3.61ZM6.747 17.599c-3.49 0-6.05 1.504-6.281 4.663h3.877v-.075c.077-1.053 1.085-1.805 2.17-1.73 1.475 0 2.173.827 2.173 2.256v.677H6.902C3.102 23.39 0 24.518 0 28.054v.15c0 2.858 2.172 4.136 4.809 4.136a4.807 4.807 0 0 0 4.03-1.88v1.655h3.956v-9.477c-.078-3.61-2.636-5.04-6.048-5.04Zm-.853 11.959c-1.396 0-2.017-.678-2.017-1.655v-.15c0-1.28 1.009-1.805 3.025-1.805h1.629v1.354c.077 1.504-1.241 2.256-2.637 2.256Zm16.202-.151c-1.939 0-2.946-1.279-2.946-4.137v-.451c0-2.783 1.163-4.136 2.946-4.136 1.396 0 2.172.902 2.404 2.256h3.878c-.31-3.686-3.102-5.34-6.359-5.34-3.877 0-6.98 2.557-6.98 7.37v.15c0 4.814 2.948 7.221 6.98 7.221 3.954 0 6.204-2.33 6.514-5.49h-3.722c-.31 1.58-1.319 2.557-2.715 2.557Zm15.125 0c-1.938 0-2.947-1.279-2.947-4.137v-.451c0-2.783 1.164-4.136 2.947-4.136 1.396 0 2.171.902 2.403 2.256h3.878c-.31-3.686-3.101-5.34-6.359-5.34-3.877 0-6.978 2.557-6.978 7.37v.15c0 4.814 2.947 7.221 6.978 7.221 3.956 0 6.203-2.33 6.437-5.49h-3.645c-.232 1.58-1.318 2.557-2.714 2.557Zm15.275.076c-1.784 0-2.87-.978-3.024-3.535h9.46v-1.655c0-4.663-3.025-6.694-6.67-6.694-3.954 0-6.978 2.633-6.978 7.372v.3c0 4.738 2.869 7.145 7.056 7.145 3.8 0 6.126-2.03 6.514-4.738h-3.8c-.155 1.128-1.318 1.956-2.558 1.805Zm-.234-9.176c1.63 0 2.637.902 2.715 3.008H49.55c.31-2.256 1.473-2.933 2.713-3.008Zm17.68-2.707c-1.86-.076-3.567.827-4.42 2.406V17.9h-4.031v14.14h4.031v-9.025c.078-1.28 1.24-2.332 2.56-2.257 1.473 0 2.17.752 2.17 2.407v8.874h4.11v-9.476c0-3.46-1.783-4.964-4.42-4.964Zm12.018 9.926v-6.693h2.792V17.9H81.96v-4.287l-4.032 1.655V17.9h-1.784v2.933h1.706v7.145c0 2.858 1.474 4.287 4.653 4.287.775 0 1.551-.075 2.326-.3V28.88a4.53 4.53 0 0 1-1.396.227c-.93 0-1.473-.527-1.473-1.58Zm14.038-.826v.375c-.078 1.28-1.241 2.332-2.559 2.256-1.474 0-2.094-.752-2.094-2.406V17.9h-4.11v9.552c0 3.31 1.94 4.888 4.576 4.888 1.783.076 3.411-.827 4.265-2.407v2.106h4.109V17.9h-4.11l-.078 8.8Zm11.168-6.243v-2.633h-4.031v14.14h4.031V24.67c0-2.332 1.629-3.16 4.42-3.16V17.6c-2.016 0-3.799 1.128-4.42 2.858Zm19.307 3.761c0-4.663-3.024-6.619-6.669-6.619-3.955 0-6.979 2.633-6.979 7.372v.3c0 4.738 2.869 7.145 7.057 7.145 3.799 0 6.048-2.03 6.514-4.738h-3.8c-.311 1.204-1.473 1.956-2.714 1.88-1.783 0-2.87-.977-3.024-3.534h9.46v-1.806h.155Zm-9.461-.903c.31-2.331 1.474-3.008 2.792-3.008 1.629 0 2.636.902 2.715 3.008h-5.507Z" opacity=".5" fill="#95928E"></path></svg>