<svg xmlns:xlink="http://www.w3.org/1999/xlink" width="58" height="24" fill="none" xmlns="http://www.w3.org/2000/svg" id="svg-1987490594_1685"><path d="M0 0v1.592h11.253V0H0Zm12.847 0v1.592h16.036S27.246 0 25.076 0H12.847ZM32.03 0v1.592h9.701L41.154 0h-9.125Zm16.657 0-.577 1.592h9.614V0h-9.037ZM0 3.095v1.592h11.253V3.095H0Zm12.847.002v1.59h17.897s-.21-1.225-.574-1.59H12.847Zm19.182 0v1.59h10.765l-.533-1.59H32.03Zm15.505 0-.533 1.59h10.722v-1.59H47.534ZM3.234 6.19v1.594h4.873V6.19H3.233Zm12.847 0v1.594h4.873V6.19h-4.873Zm9.613 0v1.594h4.874s.31-.842.31-1.594h-5.184Zm9.568 0v1.594h8.64l-.576-1.594h-8.064Zm11.21 0-.578 1.594h8.684V6.19h-8.105ZM3.234 9.288v1.591h4.874V9.288H3.233Zm12.848 0v1.591h12.447s1.041-.816 1.373-1.591h-13.82Zm19.181 0v1.591h4.874v-.886l.31.886h8.926l.332-.886v.886h4.874V9.288H45.43l-.487 1.348-.487-1.348h-9.194Zm-32.03 3.095v1.591h4.874v-1.591H3.233Zm12.848 0v1.591H29.9c-.332-.772-1.373-1.591-1.373-1.591H16.081Zm19.181 0v1.591h4.874v-1.591h-4.874Zm5.758 0 .59 1.591h6.693l.561-1.591H41.02Zm8.684 0v1.591h4.874v-1.591h-4.874Zm-46.47 3.095v1.591h4.873v-1.591H3.233Zm12.847 0v1.591h4.873v-1.591h-4.873Zm9.613 0v1.591h5.183c0-.75-.309-1.591-.309-1.591h-4.874Zm9.568 0v1.591h4.874v-1.591h-4.874Zm6.865 0 .572 1.591h4.488l.575-1.591h-5.635Zm7.577 0v1.591h4.874v-1.591h-4.874ZM.088 18.573v1.594H11.34v-1.594H.088Zm12.76 0v1.594H30.17c.364-.365.574-1.594.574-1.594H12.847Zm19.269 0v1.594h8.019v-1.594h-8.02Zm11.119 0 .587 1.594h2.284l.55-1.594h-3.421Zm6.468 0v1.594h8.107v-1.594h-8.107ZM.088 21.67v1.592H11.34V21.67H.088Zm12.76 0v1.59h12.228c2.17 0 3.807-1.59 3.807-1.59H12.847Zm19.269 0v1.592h8.019V21.67h-8.02Zm12.233 0 .565 1.587.096.003.574-1.59H44.35Zm5.354 0v1.592h8.107V21.67h-8.107Z" fill="#95928E" opacity=".5"></path></svg>