<svg xmlns:xlink="http://www.w3.org/1999/xlink" width="101" height="24" fill="none" xmlns="http://www.w3.org/2000/svg" id="svg-539667301_5956"><path d="m19.575.472.199 7.456h-.38c-.097-.244-.19-.49-.28-.736-.583-1.637-1.067-2.747-1.45-3.327-1.452-2.217-3.28-3.327-5.486-3.327-2.406 0-4.377 1.17-5.914 3.507-1.461 2.204-2.19 4.83-2.19 7.876 0 3.158.674 5.695 2.026 7.611 1.526 2.16 3.706 3.241 6.54 3.241 1.362 0 2.557-.25 3.583-.75 1.026-.5 1.815-1.218 2.364-2.15.505-.848.879-1.94 1.12-3.281l.381.067c-.298 2.407-1.164 4.208-2.598 5.4-1.435 1.191-3.453 1.788-6.055 1.788-3.597 0-6.432-1.103-8.507-3.31C.976 18.477 0 15.748 0 12.357c0-1.818.297-3.525.893-5.121.595-1.597 1.435-2.923 2.516-3.976C4.49 2.195 5.869 1.369 7.545.782 9.01.262 10.485 0 11.963 0c1.103 0 2.235.17 3.392.508.276.076.998.311 2.167.704.265.088.502.131.712.131.386 0 .7-.29.943-.873h.398v.002Zm16.124 21.222.281.167c-.402 1.146-1.316 1.718-2.741 1.718-.903 0-1.622-.234-2.155-.704-.29-.241-.592-.634-.903-1.182-.61.537-1.073.914-1.394 1.132-.774.503-1.704.754-2.787.754-1.15 0-2.091-.275-2.821-.826-.764-.574-1.145-1.378-1.145-2.416 0-1.014.361-1.84 1.083-2.48.577-.507 1.521-.925 2.832-1.257 1.455-.364 2.477-.717 3.065-1.06.467-.264.783-.593.95-.991.144-.342.217-.822.217-1.44 0-1.157-.194-2.045-.58-2.662-.466-.739-1.162-1.109-2.09-1.109-.609 0-1.112.188-1.51.563-.211.203-.515.75-.913 1.638-.22.504-.625.755-1.21.755-.442 0-.786-.157-1.029-.473a1.287 1.287 0 0 1-.281-.815c0-.478.27-.88.813-1.207.985-.575 2.271-.864 3.854-.864.952 0 1.904.155 2.857.462 1.13.363 1.878.857 2.244 1.483.254.43.381 1.177.381 2.242v6.17c0 1.013.044 1.701.133 2.067.187.764.639 1.145 1.357 1.145.474 0 .86-.142 1.159-.427a5.51 5.51 0 0 0 .333-.383Zm-5.518-6.57c-.568.476-1.218.913-1.95 1.31-.874.476-1.447.82-1.72 1.03-1.026.786-1.539 1.782-1.539 2.988 0 .72.185 1.305.557 1.758.415.51.928.764 1.539.764.753 0 1.415-.297 1.982-.894.753-.783 1.13-2.174 1.13-4.172v-2.785Zm10.541-6.255a9.2 9.2 0 0 1 .22 2.068c1.365-1.324 3.002-1.986 4.908-1.986 1.244 0 2.28.263 3.106.79 1.035.647 1.553 1.635 1.553 2.963v5.809c.01 1.288.026 2.11.05 2.465.087.834.457 1.395 1.108 1.682.309.134.712.246 1.209.333v.333H45.52v-.333c.662-.087 1.126-.21 1.391-.366.585-.378.915-1.066.994-2.065.032-.233.054-.949.065-2.15v-3.54c0-1.847-.148-3.076-.442-3.69-.22-.458-.58-.822-1.081-1.09-.503-.268-1.076-.402-1.72-.402-.69 0-1.32.151-1.894.451-.574.301-.996.703-1.268 1.208-.328.58-.514 1.243-.558 1.985a31.33 31.33 0 0 0-.049 1.939v3.274c.01 1.265.027 2.078.05 2.432.088.833.464 1.394 1.126 1.681.297.135.695.246 1.192.334v.333h-7.355v-.333c.661-.088 1.126-.211 1.39-.366.585-.378.916-1.067.994-2.066.033-.244.055-.966.066-2.165v-4.13c-.011-1.332-.038-2.132-.082-2.4-.178-1.33-.906-2.02-2.186-2.064v-.334l4.568-.6Zm27.101 12.825.28.167c-.4 1.146-1.315 1.718-2.74 1.718-.903 0-1.622-.234-2.156-.704-.29-.241-.59-.634-.902-1.182-.61.537-1.074.914-1.394 1.132-.774.503-1.703.754-2.786.754-1.151 0-2.091-.275-2.822-.826-.763-.574-1.145-1.378-1.145-2.416 0-1.014.362-1.84 1.083-2.48.578-.507 1.522-.925 2.832-1.257 1.454-.364 2.477-.717 3.066-1.06.466-.264.782-.593.949-.991.143-.342.217-.822.217-1.44 0-1.157-.194-2.045-.58-2.662-.466-.739-1.162-1.109-2.09-1.109-.608 0-1.111.188-1.51.563-.21.203-.515.75-.912 1.638-.222.504-.626.755-1.211.755-.442 0-.785-.157-1.029-.473a1.283 1.283 0 0 1-.282-.815c0-.478.272-.88.815-1.207.985-.575 2.27-.864 3.854-.864a9.26 9.26 0 0 1 2.857.462c1.13.363 1.876.857 2.243 1.483.255.43.382 1.177.382 2.242v6.17c0 1.013.044 1.701.132 2.067.189.764.64 1.145 1.358 1.145.474 0 .86-.142 1.16-.427.115-.123.226-.25.331-.383Zm-5.518-6.57c-.567.476-1.218.913-1.949 1.31-.874.476-1.448.82-1.72 1.03-1.027.786-1.54 1.782-1.54 2.988 0 .72.186 1.305.558 1.758.414.51.927.764 1.539.764.753 0 1.415-.297 1.982-.894.753-.783 1.13-2.174 1.13-4.172v-2.785Zm17.848 8.732a7.25 7.25 0 0 1-.17-1.732c-1.52.979-3.062 1.468-4.626 1.468-1.884 0-3.444-.619-4.677-1.857-1.322-1.328-1.983-3.074-1.983-5.241 0-2.288.7-4.145 2.099-5.573 1.3-1.315 2.93-1.974 4.89-1.974 1.156 0 2.185.276 3.09.826.297.174.677.45 1.14.827V4.482c0-1.476-.321-2.476-.96-2.998-.376-.266-.911-.404-1.607-.416V.65L82.453 0v19.275c.01 1.01.116 1.726.314 2.148.287.679.746 1.094 1.374 1.25.231.043.525.072.878.083v.416l-4.866.683ZM76.233 9.35c-1.253 0-2.323.664-3.207 1.99-.928 1.384-1.39 3.01-1.39 4.879 0 1.791.424 3.383 1.275 4.777.84 1.372 1.926 2.058 3.256 2.058a3.248 3.248 0 0 0 1.809-.548c.55-.353.986-.86 1.252-1.46.32-.678.513-1.409.572-2.157.077-.795.115-1.687.115-2.67 0-1.814-.07-3.064-.213-3.75-.24-1.139-.726-1.968-1.457-2.488a3.42 3.42 0 0 0-2.012-.631Zm23.829 12.343.282.167c-.401 1.146-1.316 1.718-2.741 1.718-.902 0-1.621-.234-2.155-.704-.29-.241-.592-.634-.902-1.182-.61.537-1.075.914-1.394 1.132-.775.503-1.704.754-2.788.754-1.15 0-2.091-.275-2.821-.826-.763-.574-1.145-1.378-1.145-2.416 0-1.014.362-1.84 1.083-2.48.578-.507 1.521-.925 2.833-1.257 1.454-.364 2.476-.717 3.065-1.06.466-.264.782-.593.949-.991.144-.342.218-.822.218-1.44 0-1.157-.195-2.045-.582-2.662-.465-.739-1.16-1.109-2.09-1.109-.607 0-1.11.188-1.51.563-.21.203-.514.75-.91 1.638-.223.504-.627.755-1.212.755-.442 0-.785-.157-1.028-.473a1.282 1.282 0 0 1-.282-.815c0-.478.27-.88.814-1.207.985-.575 2.27-.864 3.854-.864a9.26 9.26 0 0 1 2.857.462c1.129.363 1.877.857 2.244 1.483.254.43.381 1.177.381 2.242v6.17c0 1.013.045 1.701.133 2.067.187.764.64 1.145 1.357 1.145.474 0 .86-.142 1.16-.427a5.92 5.92 0 0 0 .33-.383Zm-5.516-6.57c-.568.476-1.218.913-1.95 1.31-.874.476-1.447.82-1.72 1.03-1.027.786-1.54 1.782-1.54 2.988 0 .72.186 1.305.558 1.758.414.51.927.764 1.54.764.752 0 1.413-.297 1.98-.894.755-.783 1.132-2.174 1.132-4.172v-2.785ZM87.897 7.26V.007h-3.44v7.255h3.44Zm11.734 0V.007h-3.428v7.255h3.428Zm-7.619-.317h-.29V5.549l-1.555.146.29-.558-1.688-1.245.448-.252-.435-1.192.923.225.343-.477 1.174 1.18-.62-2.268.738.423.672-1.22.672 1.22.751-.423-.633 2.267 1.185-1.18.345.478.908-.225-.433 1.192.462.252-1.702 1.245.303.558-1.556-.146v1.394h-.302Z" opacity=".5" fill-rule="evenodd" clip-rule="evenodd" fill="#95928E"></path></svg>